<mxfile host="Electron" agent="Mozilla/5.0 (Macintosh; Intel Mac OS X 10_15_7) AppleWebKit/537.36 (KHTML, like Gecko) draw.io/27.0.9 Chrome/134.0.6998.205 Electron/35.4.0 Safari/537.36" version="27.0.9">
  <diagram name="Page-1" id="e8Bs1yd9VQ3p9d25QUaQ">
    <mxGraphModel dx="946" dy="732" grid="1" gridSize="10" guides="1" tooltips="1" connect="1" arrows="1" fold="1" page="1" pageScale="1" pageWidth="827" pageHeight="1169" math="0" shadow="0">
      <root>
        <mxCell id="0" />
        <mxCell id="1" parent="0" />
        <mxCell id="jJEfotMlX0ZuNk-el42J-4" value="" style="rounded=0;whiteSpace=wrap;html=1;dashed=1;" parent="1" vertex="1">
          <mxGeometry x="80" y="320" width="200" height="600" as="geometry" />
        </mxCell>
        <mxCell id="jJEfotMlX0ZuNk-el42J-5" value="&lt;font style=&quot;font-size: 16px;&quot;&gt;&lt;b&gt;&lt;i&gt;Sources&lt;/i&gt;&lt;/b&gt;&lt;/font&gt;" style="text;html=1;align=center;verticalAlign=middle;whiteSpace=wrap;rounded=0;" parent="1" vertex="1">
          <mxGeometry x="80" y="290" width="200" height="30" as="geometry" />
        </mxCell>
        <mxCell id="jJEfotMlX0ZuNk-el42J-6" value="" style="image;html=1;image=img/lib/clip_art/general/Full_Folder_128x128.png" parent="1" vertex="1">
          <mxGeometry x="120" y="410" width="120" height="110" as="geometry" />
        </mxCell>
        <mxCell id="jJEfotMlX0ZuNk-el42J-7" value="" style="image;html=1;image=img/lib/clip_art/general/Full_Folder_128x128.png" parent="1" vertex="1">
          <mxGeometry x="120" y="630" width="120" height="110" as="geometry" />
        </mxCell>
        <mxCell id="jJEfotMlX0ZuNk-el42J-8" value="" style="image;aspect=fixed;html=1;points=[];align=center;fontSize=12;image=img/lib/azure2/general/File.svg;" parent="1" vertex="1">
          <mxGeometry x="200" y="460" width="56.00000000000001" height="69" as="geometry" />
        </mxCell>
        <mxCell id="jJEfotMlX0ZuNk-el42J-9" value="" style="image;aspect=fixed;html=1;points=[];align=center;fontSize=12;image=img/lib/azure2/general/File.svg;" parent="1" vertex="1">
          <mxGeometry x="200" y="690" width="56.00000000000001" height="69" as="geometry" />
        </mxCell>
        <mxCell id="jJEfotMlX0ZuNk-el42J-10" value="&lt;font style=&quot;font-size: 14px;&quot;&gt;CRM&lt;/font&gt;" style="text;html=1;align=center;verticalAlign=middle;whiteSpace=wrap;rounded=0;" parent="1" vertex="1">
          <mxGeometry x="110" y="540" width="130" height="30" as="geometry" />
        </mxCell>
        <mxCell id="jJEfotMlX0ZuNk-el42J-11" value="&lt;font style=&quot;font-size: 14px;&quot;&gt;ERP&lt;/font&gt;" style="text;html=1;align=center;verticalAlign=middle;whiteSpace=wrap;rounded=0;" parent="1" vertex="1">
          <mxGeometry x="110" y="770" width="130" height="30" as="geometry" />
        </mxCell>
        <mxCell id="jJEfotMlX0ZuNk-el42J-12" value="" style="rounded=1;whiteSpace=wrap;html=1;dashed=1;fontStyle=1;strokeColor=#FFE599;" parent="1" vertex="1">
          <mxGeometry x="360" y="320" width="240" height="600" as="geometry" />
        </mxCell>
        <mxCell id="jJEfotMlX0ZuNk-el42J-13" value="&lt;font style=&quot;font-size: 14px;&quot;&gt;&lt;b&gt;&lt;i&gt;Bronze Layer&lt;/i&gt;&lt;/b&gt;&lt;/font&gt;" style="text;html=1;align=center;verticalAlign=middle;whiteSpace=wrap;rounded=0;fillColor=#fff2cc;strokeColor=#d6b656;" parent="1" vertex="1">
          <mxGeometry x="370" y="290" width="220" height="30" as="geometry" />
        </mxCell>
        <mxCell id="jJEfotMlX0ZuNk-el42J-14" value="&lt;font style=&quot;font-size: 14px;&quot;&gt;crm_sales_details&lt;/font&gt;" style="text;html=1;align=center;verticalAlign=middle;whiteSpace=wrap;rounded=0;fillColor=#fff2cc;strokeColor=#d6b656;" parent="1" vertex="1">
          <mxGeometry x="380" y="390" width="200" height="30" as="geometry" />
        </mxCell>
        <mxCell id="jJEfotMlX0ZuNk-el42J-15" value="&lt;font style=&quot;font-size: 14px;&quot;&gt;crm_cust_info&lt;/font&gt;" style="text;html=1;align=center;verticalAlign=middle;whiteSpace=wrap;rounded=0;fillColor=#fff2cc;strokeColor=#d6b656;" parent="1" vertex="1">
          <mxGeometry x="380" y="440" width="200" height="30" as="geometry" />
        </mxCell>
        <mxCell id="jJEfotMlX0ZuNk-el42J-16" value="&lt;font style=&quot;font-size: 14px;&quot;&gt;crm_prd_info&lt;/font&gt;" style="text;html=1;align=center;verticalAlign=middle;whiteSpace=wrap;rounded=0;fillColor=#fff2cc;strokeColor=#d6b656;" parent="1" vertex="1">
          <mxGeometry x="380" y="490" width="200" height="30" as="geometry" />
        </mxCell>
        <mxCell id="jJEfotMlX0ZuNk-el42J-17" value="&lt;font style=&quot;font-size: 14px;&quot;&gt;erp_cust_az12&lt;/font&gt;" style="text;html=1;align=center;verticalAlign=middle;whiteSpace=wrap;rounded=0;fillColor=#fff2cc;strokeColor=#d6b656;" parent="1" vertex="1">
          <mxGeometry x="380" y="620" width="200" height="30" as="geometry" />
        </mxCell>
        <mxCell id="jJEfotMlX0ZuNk-el42J-18" value="&lt;font style=&quot;font-size: 14px;&quot;&gt;erp_loc_a101&lt;/font&gt;" style="text;html=1;align=center;verticalAlign=middle;whiteSpace=wrap;rounded=0;fillColor=#fff2cc;strokeColor=#d6b656;" parent="1" vertex="1">
          <mxGeometry x="380" y="670" width="200" height="30" as="geometry" />
        </mxCell>
        <mxCell id="jJEfotMlX0ZuNk-el42J-19" value="&lt;font style=&quot;font-size: 14px;&quot;&gt;erp_px_cat_g1v2&lt;/font&gt;" style="text;html=1;align=center;verticalAlign=middle;whiteSpace=wrap;rounded=0;fillColor=#fff2cc;strokeColor=#d6b656;" parent="1" vertex="1">
          <mxGeometry x="380" y="720" width="200" height="30" as="geometry" />
        </mxCell>
        <mxCell id="jJEfotMlX0ZuNk-el42J-26" value="" style="edgeStyle=orthogonalEdgeStyle;html=1;endArrow=open;elbow=vertical;startArrow=none;endFill=0;strokeColor=#545B64;rounded=0;" parent="1" edge="1">
          <mxGeometry width="100" relative="1" as="geometry">
            <mxPoint x="310" y="500" as="sourcePoint" />
            <mxPoint x="380" y="404.5" as="targetPoint" />
            <Array as="points">
              <mxPoint x="380" y="404.5" />
              <mxPoint x="380" y="404.5" />
            </Array>
          </mxGeometry>
        </mxCell>
        <mxCell id="jJEfotMlX0ZuNk-el42J-27" value="" style="edgeStyle=orthogonalEdgeStyle;html=1;endArrow=open;elbow=vertical;startArrow=none;endFill=0;strokeColor=#545B64;rounded=0;" parent="1" edge="1">
          <mxGeometry width="100" relative="1" as="geometry">
            <mxPoint x="310" y="500" as="sourcePoint" />
            <mxPoint x="380" y="500" as="targetPoint" />
            <Array as="points">
              <mxPoint x="370" y="500" />
              <mxPoint x="370" y="500" />
            </Array>
          </mxGeometry>
        </mxCell>
        <mxCell id="jJEfotMlX0ZuNk-el42J-29" value="" style="edgeStyle=orthogonalEdgeStyle;html=1;endArrow=open;elbow=vertical;startArrow=none;endFill=0;strokeColor=#545B64;rounded=0;exitX=0.625;exitY=-0.036;exitDx=0;exitDy=0;exitPerimeter=0;" parent="1" source="jJEfotMlX0ZuNk-el42J-8" edge="1">
          <mxGeometry width="100" relative="1" as="geometry">
            <mxPoint x="280" y="454.5" as="sourcePoint" />
            <mxPoint x="380" y="454.5" as="targetPoint" />
            <Array as="points">
              <mxPoint x="235" y="455" />
            </Array>
          </mxGeometry>
        </mxCell>
        <mxCell id="jJEfotMlX0ZuNk-el42J-32" value="" style="edgeStyle=orthogonalEdgeStyle;html=1;endArrow=open;elbow=vertical;startArrow=none;endFill=0;strokeColor=#545B64;rounded=0;exitX=0.625;exitY=-0.036;exitDx=0;exitDy=0;exitPerimeter=0;" parent="1" edge="1">
          <mxGeometry width="100" relative="1" as="geometry">
            <mxPoint x="235" y="686.75" as="sourcePoint" />
            <mxPoint x="380" y="683.25" as="targetPoint" />
            <Array as="points">
              <mxPoint x="235" y="683.75" />
            </Array>
          </mxGeometry>
        </mxCell>
        <mxCell id="jJEfotMlX0ZuNk-el42J-33" value="" style="edgeStyle=orthogonalEdgeStyle;html=1;endArrow=open;elbow=vertical;startArrow=none;endFill=0;strokeColor=#545B64;rounded=0;" parent="1" edge="1">
          <mxGeometry width="100" relative="1" as="geometry">
            <mxPoint x="310" y="732.75" as="sourcePoint" />
            <mxPoint x="380" y="637.25" as="targetPoint" />
            <Array as="points">
              <mxPoint x="310" y="637.25" />
            </Array>
          </mxGeometry>
        </mxCell>
        <mxCell id="jJEfotMlX0ZuNk-el42J-38" value="" style="edgeStyle=orthogonalEdgeStyle;html=1;endArrow=open;elbow=vertical;startArrow=none;endFill=0;strokeColor=#545B64;rounded=0;" parent="1" edge="1">
          <mxGeometry width="100" relative="1" as="geometry">
            <mxPoint x="310" y="735" as="sourcePoint" />
            <mxPoint x="380" y="734.5" as="targetPoint" />
            <Array as="points">
              <mxPoint x="310" y="734.5" />
              <mxPoint x="310" y="734.5" />
            </Array>
          </mxGeometry>
        </mxCell>
        <mxCell id="jJEfotMlX0ZuNk-el42J-39" value="" style="rounded=1;whiteSpace=wrap;html=1;dashed=1;fontStyle=1;strokeColor=#E6E6E6;" parent="1" vertex="1">
          <mxGeometry x="670" y="320" width="240" height="600" as="geometry" />
        </mxCell>
        <mxCell id="jJEfotMlX0ZuNk-el42J-40" value="&lt;font style=&quot;font-size: 14px;&quot;&gt;&lt;b&gt;&lt;i&gt;Silver Layer&lt;/i&gt;&lt;/b&gt;&lt;/font&gt;" style="text;html=1;align=center;verticalAlign=middle;whiteSpace=wrap;rounded=0;fillColor=#f5f5f5;strokeColor=#666666;fontColor=#333333;" parent="1" vertex="1">
          <mxGeometry x="680" y="290" width="220" height="30" as="geometry" />
        </mxCell>
        <mxCell id="jJEfotMlX0ZuNk-el42J-41" value="&lt;font style=&quot;font-size: 14px;&quot;&gt;crm_sales_details&lt;/font&gt;" style="text;html=1;align=center;verticalAlign=middle;whiteSpace=wrap;rounded=0;fillColor=#f5f5f5;strokeColor=#666666;fontColor=#333333;" parent="1" vertex="1">
          <mxGeometry x="690" y="390" width="200" height="30" as="geometry" />
        </mxCell>
        <mxCell id="jJEfotMlX0ZuNk-el42J-42" value="&lt;font style=&quot;font-size: 14px;&quot;&gt;crm_cust_info&lt;/font&gt;" style="text;html=1;align=center;verticalAlign=middle;whiteSpace=wrap;rounded=0;fillColor=#f5f5f5;strokeColor=#666666;fontColor=#333333;" parent="1" vertex="1">
          <mxGeometry x="690" y="440" width="200" height="30" as="geometry" />
        </mxCell>
        <mxCell id="jJEfotMlX0ZuNk-el42J-43" value="&lt;font style=&quot;font-size: 14px;&quot;&gt;crm_prd_info&lt;/font&gt;" style="text;html=1;align=center;verticalAlign=middle;whiteSpace=wrap;rounded=0;fillColor=#f5f5f5;strokeColor=#666666;fontColor=#333333;" parent="1" vertex="1">
          <mxGeometry x="690" y="490" width="200" height="30" as="geometry" />
        </mxCell>
        <mxCell id="jJEfotMlX0ZuNk-el42J-44" value="" style="edgeStyle=orthogonalEdgeStyle;html=1;endArrow=open;elbow=vertical;startArrow=none;endFill=0;strokeColor=#545B64;rounded=0;exitX=1;exitY=0.5;exitDx=0;exitDy=0;" parent="1" source="jJEfotMlX0ZuNk-el42J-14" edge="1">
          <mxGeometry width="100" relative="1" as="geometry">
            <mxPoint x="590" y="404.5" as="sourcePoint" />
            <mxPoint x="690" y="404.5" as="targetPoint" />
            <Array as="points">
              <mxPoint x="590" y="405" />
            </Array>
          </mxGeometry>
        </mxCell>
        <mxCell id="jJEfotMlX0ZuNk-el42J-46" value="" style="edgeStyle=orthogonalEdgeStyle;html=1;endArrow=open;elbow=vertical;startArrow=none;endFill=0;strokeColor=#545B64;rounded=0;exitX=1;exitY=0.5;exitDx=0;exitDy=0;" parent="1" edge="1">
          <mxGeometry width="100" relative="1" as="geometry">
            <mxPoint x="580" y="455" as="sourcePoint" />
            <mxPoint x="690" y="454.5" as="targetPoint" />
            <Array as="points">
              <mxPoint x="635" y="455.5" />
            </Array>
          </mxGeometry>
        </mxCell>
        <mxCell id="jJEfotMlX0ZuNk-el42J-48" value="" style="edgeStyle=orthogonalEdgeStyle;html=1;endArrow=open;elbow=vertical;startArrow=none;endFill=0;strokeColor=#545B64;rounded=0;exitX=1;exitY=0.5;exitDx=0;exitDy=0;" parent="1" edge="1">
          <mxGeometry width="100" relative="1" as="geometry">
            <mxPoint x="580" y="505" as="sourcePoint" />
            <mxPoint x="690" y="504.5" as="targetPoint" />
            <Array as="points">
              <mxPoint x="590" y="505" />
            </Array>
          </mxGeometry>
        </mxCell>
        <mxCell id="jJEfotMlX0ZuNk-el42J-50" value="&lt;font style=&quot;font-size: 14px;&quot;&gt;erp_cust_az12&lt;/font&gt;" style="text;html=1;align=center;verticalAlign=middle;whiteSpace=wrap;rounded=0;fillColor=#f5f5f5;strokeColor=#666666;fontColor=#333333;" parent="1" vertex="1">
          <mxGeometry x="690" y="620" width="200" height="30" as="geometry" />
        </mxCell>
        <mxCell id="jJEfotMlX0ZuNk-el42J-51" value="&lt;font style=&quot;font-size: 14px;&quot;&gt;erp_loc_a101&lt;/font&gt;" style="text;html=1;align=center;verticalAlign=middle;whiteSpace=wrap;rounded=0;fillColor=#f5f5f5;strokeColor=#666666;fontColor=#333333;" parent="1" vertex="1">
          <mxGeometry x="690" y="670" width="200" height="30" as="geometry" />
        </mxCell>
        <mxCell id="jJEfotMlX0ZuNk-el42J-52" value="&lt;font style=&quot;font-size: 14px;&quot;&gt;erp_loc_a101&lt;/font&gt;" style="text;html=1;align=center;verticalAlign=middle;whiteSpace=wrap;rounded=0;fillColor=#f5f5f5;strokeColor=#666666;fontColor=#333333;" parent="1" vertex="1">
          <mxGeometry x="690" y="720" width="200" height="30" as="geometry" />
        </mxCell>
        <mxCell id="jJEfotMlX0ZuNk-el42J-55" value="" style="edgeStyle=orthogonalEdgeStyle;html=1;endArrow=open;elbow=vertical;startArrow=none;endFill=0;strokeColor=#545B64;rounded=0;exitX=1;exitY=0.5;exitDx=0;exitDy=0;" parent="1" edge="1">
          <mxGeometry width="100" relative="1" as="geometry">
            <mxPoint x="580" y="635" as="sourcePoint" />
            <mxPoint x="690" y="634.5" as="targetPoint" />
            <Array as="points">
              <mxPoint x="630" y="635.5" />
            </Array>
          </mxGeometry>
        </mxCell>
        <mxCell id="jJEfotMlX0ZuNk-el42J-56" value="" style="edgeStyle=orthogonalEdgeStyle;html=1;endArrow=open;elbow=vertical;startArrow=none;endFill=0;strokeColor=#545B64;rounded=0;exitX=1;exitY=0.5;exitDx=0;exitDy=0;" parent="1" edge="1">
          <mxGeometry width="100" relative="1" as="geometry">
            <mxPoint x="580" y="685" as="sourcePoint" />
            <mxPoint x="690" y="684.5" as="targetPoint" />
            <Array as="points">
              <mxPoint x="590" y="685" />
            </Array>
          </mxGeometry>
        </mxCell>
        <mxCell id="jJEfotMlX0ZuNk-el42J-57" value="" style="edgeStyle=orthogonalEdgeStyle;html=1;endArrow=open;elbow=vertical;startArrow=none;endFill=0;strokeColor=#545B64;rounded=0;exitX=1;exitY=0.5;exitDx=0;exitDy=0;" parent="1" edge="1">
          <mxGeometry width="100" relative="1" as="geometry">
            <mxPoint x="580" y="735" as="sourcePoint" />
            <mxPoint x="690" y="734.5" as="targetPoint" />
            <Array as="points">
              <mxPoint x="590" y="735" />
            </Array>
          </mxGeometry>
        </mxCell>
        <mxCell id="jJEfotMlX0ZuNk-el42J-58" value="" style="rounded=1;whiteSpace=wrap;html=1;dashed=1;fontStyle=1;strokeColor=#FFD966;" parent="1" vertex="1">
          <mxGeometry x="970" y="320" width="240" height="600" as="geometry" />
        </mxCell>
        <mxCell id="jJEfotMlX0ZuNk-el42J-60" value="&lt;font style=&quot;font-size: 14px;&quot;&gt;&lt;b&gt;&lt;i&gt;Gold Layer&lt;/i&gt;&lt;/b&gt;&lt;/font&gt;" style="text;html=1;align=center;verticalAlign=middle;whiteSpace=wrap;rounded=0;fillColor=#e3c800;strokeColor=#B09500;fontColor=#000000;" parent="1" vertex="1">
          <mxGeometry x="980" y="290" width="220" height="30" as="geometry" />
        </mxCell>
        <mxCell id="jJEfotMlX0ZuNk-el42J-61" value="&lt;font style=&quot;font-size: 14px;&quot;&gt;fact_sales&lt;/font&gt;" style="text;html=1;align=center;verticalAlign=middle;whiteSpace=wrap;rounded=0;fillColor=#e3c800;strokeColor=#B09500;fontColor=#000000;" parent="1" vertex="1">
          <mxGeometry x="990" y="390" width="200" height="30" as="geometry" />
        </mxCell>
        <mxCell id="jJEfotMlX0ZuNk-el42J-62" value="&lt;font style=&quot;font-size: 14px;&quot;&gt;dim_customers&lt;/font&gt;" style="text;html=1;align=center;verticalAlign=middle;whiteSpace=wrap;rounded=0;fillColor=#e3c800;strokeColor=#B09500;fontColor=#000000;" parent="1" vertex="1">
          <mxGeometry x="990" y="499" width="200" height="30" as="geometry" />
        </mxCell>
        <mxCell id="jJEfotMlX0ZuNk-el42J-63" value="&lt;font style=&quot;font-size: 14px;&quot;&gt;dim_products&lt;/font&gt;" style="text;html=1;align=center;verticalAlign=middle;whiteSpace=wrap;rounded=0;fillColor=#e3c800;strokeColor=#B09500;fontColor=#000000;" parent="1" vertex="1">
          <mxGeometry x="980" y="630" width="200" height="30" as="geometry" />
        </mxCell>
        <mxCell id="jJEfotMlX0ZuNk-el42J-64" value="" style="edgeStyle=orthogonalEdgeStyle;html=1;endArrow=open;elbow=vertical;startArrow=none;endFill=0;strokeColor=#545B64;rounded=0;" parent="1" edge="1">
          <mxGeometry width="100" relative="1" as="geometry">
            <mxPoint x="890" y="405" as="sourcePoint" />
            <mxPoint x="990" y="404.5" as="targetPoint" />
            <Array as="points">
              <mxPoint x="930" y="405.5" />
            </Array>
          </mxGeometry>
        </mxCell>
        <mxCell id="jJEfotMlX0ZuNk-el42J-65" value="" style="endArrow=classic;html=1;rounded=0;entryX=0;entryY=0.75;entryDx=0;entryDy=0;" parent="1" target="jJEfotMlX0ZuNk-el42J-63" edge="1">
          <mxGeometry width="50" height="50" relative="1" as="geometry">
            <mxPoint x="890" y="740" as="sourcePoint" />
            <mxPoint x="940" y="690" as="targetPoint" />
          </mxGeometry>
        </mxCell>
        <mxCell id="jJEfotMlX0ZuNk-el42J-66" value="" style="endArrow=classic;html=1;rounded=0;entryX=0;entryY=0.75;entryDx=0;entryDy=0;exitX=1;exitY=0.5;exitDx=0;exitDy=0;" parent="1" source="jJEfotMlX0ZuNk-el42J-42" edge="1">
          <mxGeometry width="50" height="50" relative="1" as="geometry">
            <mxPoint x="900" y="433" as="sourcePoint" />
            <mxPoint x="990" y="520" as="targetPoint" />
            <Array as="points" />
          </mxGeometry>
        </mxCell>
        <mxCell id="jJEfotMlX0ZuNk-el42J-67" value="" style="endArrow=classic;html=1;rounded=0;entryX=0;entryY=0.5;entryDx=0;entryDy=0;exitX=1;exitY=0.5;exitDx=0;exitDy=0;" parent="1" target="jJEfotMlX0ZuNk-el42J-63" edge="1">
          <mxGeometry width="50" height="50" relative="1" as="geometry">
            <mxPoint x="890" y="505" as="sourcePoint" />
            <mxPoint x="990" y="570" as="targetPoint" />
            <Array as="points" />
          </mxGeometry>
        </mxCell>
        <mxCell id="jJEfotMlX0ZuNk-el42J-68" value="" style="endArrow=classic;html=1;rounded=0;" parent="1" edge="1">
          <mxGeometry width="50" height="50" relative="1" as="geometry">
            <mxPoint x="890" y="630" as="sourcePoint" />
            <mxPoint x="990" y="520" as="targetPoint" />
          </mxGeometry>
        </mxCell>
        <mxCell id="jJEfotMlX0ZuNk-el42J-69" value="" style="endArrow=classic;html=1;rounded=0;entryX=0;entryY=0.5;entryDx=0;entryDy=0;" parent="1" target="jJEfotMlX0ZuNk-el42J-62" edge="1">
          <mxGeometry width="50" height="50" relative="1" as="geometry">
            <mxPoint x="890" y="678.5" as="sourcePoint" />
            <mxPoint x="980" y="591.5" as="targetPoint" />
          </mxGeometry>
        </mxCell>
        <mxCell id="iYqK_wT8y2aIPWXXxH_p-1" value="&lt;font style=&quot;&quot;&gt;&lt;b style=&quot;&quot;&gt;&lt;span style=&quot;font-size: 30px;&quot;&gt;Data Flow &lt;/span&gt;&lt;font style=&quot;font-size: 24px;&quot;&gt;(Data Lineage)&lt;/font&gt;&lt;/b&gt;&lt;/font&gt;" style="rounded=1;whiteSpace=wrap;html=1;" vertex="1" parent="1">
          <mxGeometry x="375" y="180" width="830" height="60" as="geometry" />
        </mxCell>
      </root>
    </mxGraphModel>
  </diagram>
</mxfile>
